<svg xmlns="http://www.w3.org/2000/svg" width="32" height="32" viewBox="0 0 32 32" fill="none">
  <rect width="32" height="32" rx="7" fill="white"/>
  <g transform="translate(4,4)" stroke="#003D5B" stroke-width="1.7" stroke-linecap="round" stroke-linejoin="round">
    <path d="M20.25 6.375c0 2.278-3.694 4.125-8.25 4.125S3.75 8.653 3.75 6.375m16.5 0c0-2.278-3.694-4.125-8.25-4.125S3.75 4.097 3.75 6.375m16.5 0v11.25c0 2.278-3.694 4.125-8.25 4.125s-8.25-1.847-8.25-4.125V6.375m16.5 2.25c0 2.278-3.694 4.125-8.25 4.125s-8.25-1.847-8.25-4.125m16.5 5.625c0 2.278-3.694 4.125-8.25 4.125s-8.25-1.847-8.25-4.125"/>
  </g>
</svg>
