<svg xmlns="http://www.w3.org/2000/svg" width="32" height="32" viewBox="0 0 32 32" fill="none">
  <rect width="32" height="32" rx="7" fill="white"/>
  <g transform="translate(4,4)" stroke="#003D5B" stroke-width="1.7" stroke-linecap="round" stroke-linejoin="round">
    <path d="M6 13.5V3.75m0 9.75a1.5 1.5 0 010 3m0-3a1.5 1.5 0 000 3m0 3.75V16.5m12-3V3.75m0 9.75a1.5 1.5 0 010 3m0-3a1.5 1.5 0 000 3m0 3.75V16.5m-6-9a1.5 1.5 0 010-3m0 3a1.5 1.5 0 000-3m0-3.75V3m0 3.75a1.5 1.5 0 010 3m0-3a1.5 1.5 0 000 3m0 9V10.5"/>
  </g>
</svg>
