<?xml version="1.0" encoding="UTF-8"?> <svg xmlns="http://www.w3.org/2000/svg" id="Computer-Imac-2--Streamline-Cyber" version="1.1" viewBox="0 0 70 70"><!-- Generator: Adobe Illustrator 29.5.1, SVG Export Plug-In . SVG Version: 2.1.0 Build 141) --><defs><style> .st0, .st1, .st2, .st3, .st4, .st5, .st6 { stroke-miterlimit: 10; } .st0, .st1, .st2, .st3, .st7 { stroke: #092f63; } .st0, .st1, .st8, .st4, .st9, .st7, .st6, .st10, .st11, .st12 { fill: none; } .st0, .st2, .st4, .st7, .st10, .st12 { stroke-width: 2px; } .st1, .st8, .st3 { stroke-width: 1.5px; } .st2, .st13, .st3, .st14 { fill: #fff; } .st8, .st4, .st5, .st9, .st6, .st14, .st10, .st15, .st11, .st12 { stroke: #092f63; } .st8, .st9, .st7, .st14, .st10, .st15, .st11 { stroke-linecap: round; } .st8, .st9, .st7, .st14, .st10, .st15, .st11, .st12 { stroke-linejoin: round; } .st5 { stroke-width: .5px; } .st5, .st16 { fill: #092f63; } .st6, .st11 { stroke-width: .9px; } .st17, .st15 { fill: #bbd8ff; } .st18 { fill: #15588d; } </style></defs><path class="st13" d="M-79.45-97.59v-51.99h-67.28v51.99h27.52v7.65l-12.23,4.59v3.06h36.7v-3.06l-12.23-4.59v-7.65h27.52Z"></path><path class="st17" d="M-79.45-149.58l-67.28,42.81h67.28v-42.81Z"></path><path class="st7" d="M-79.45-149.58h-67.28v51.99h67.28v-51.99Z"></path><path class="st10" d="M-146.73-106.76h67.28"></path><path class="st10" d="M-94.74-85.36v3.06h-36.7v-3.06l12.23-4.59v-7.65h12.23v7.65l12.23,4.59Z"></path><g><path class="st13" d="M-31.14-127.12h-2.28v-6.08l-3.8-3.04-.76-3.04h-15.2l-.76,3.04-3.8,3.04v21.28l3.8,3.04.76,3.04h15.2l.76-3.04,3.8-3.04v-10.64h2.28l.76-2.28-.76-2.28Z"></path><path class="st9" d="M-33.42-133.2h-24.32v21.28h24.32v-21.28Z"></path><path class="st9" d="M-33.42-133.2l-3.8-3.04-.76-3.04h-15.2l-.76,3.04-3.8,3.04"></path><path class="st9" d="M-33.42-111.92l-3.8,3.04-.76,3.04h-15.2l-.76-3.04-3.8-3.04"></path><path class="st9" d="M-33.42-127.12h2.28l.76,2.28-.76,2.28h-2.28"></path><path class="st9" d="M-53.94-136.24h16.72"></path><path class="st9" d="M-53.94-108.88h16.72"></path><path class="st15" d="M-39.5-124.06l1.52-1.67-1.16-1.96-2.25.54-2.55-1.37-.5-1.64h-2.28l-.5,1.64-2.55,1.37-2.25-.54-1.16,1.96,1.52,1.67v3l-1.52,1.67,1.16,1.96,2.25-.54,2.55,1.37.5,1.64h2.28l.5-1.64,2.55-1.37,2.25.54,1.16-1.96-1.52-1.67v-3Z"></path><path class="st14" d="M-48.62-124.26l3.04-1.72,3.04,1.72v3.4l-3.04,1.72-3.04-1.72v-3.4Z"></path></g><g><path class="st14" d="M126.49-120.41h2.24l.75,2.24-.75,2.24h-2.24"></path><g><path class="st14" d="M128.73-120.41h-2.24v-5.97l-3.73-2.98-.75-2.98h-14.91l-.75,2.98-3.73,2.98v20.88l3.73,2.98.75,2.98h14.91l.75-2.98,3.73-2.98v-10.44h2.24l.75-2.24-.75-2.24Z"></path><path class="st14" d="M126.49-126.38h-23.86v20.88h23.86v-20.88Z"></path><path class="st14" d="M126.49-126.38l-3.73-2.98-.75-2.98h-14.91l-.75,2.98-3.73,2.98"></path><path class="st14" d="M126.49-105.5l-3.73,2.98-.75,2.98h-14.91l-.75-2.98-3.73-2.98"></path><path class="st14" d="M106.36-129.36h16.4"></path><path class="st14" d="M106.36-102.52h16.4"></path></g></g><g><path class="st5" d="M-129.86-112.56h34.39c1.44.15,1.36,1.45-.13,1.53h-34.02c-1.43-.07-1.58-1.27-.24-1.53Z"></path><path class="st5" d="M-116.76-131.92c.64-.06,1.12.52,1.02,1.15l-1.88,5.78c-.12.9.28,1.56,1.1,1.91,1.68.72,3.7,1.1,5.4,1.8.17.07.34.15.48.27l4.71,6.2c.54.94-.47,1.95-1.4,1.4-1.62-1.94-3.05-4.05-4.6-6.06l-5.68-1.94c-1.45-.74-2.26-2.4-1.9-4,.43-1.93,1.46-3.98,1.95-5.92.14-.33.44-.56.8-.59Z"></path><g><path class="st5" d="M-104.95-127.26c.06.01.33.15.4.19,1.42,1.7,2.76,3.48,4.1,5.24.52,1.12-.92,2.05-1.7,1.07l-3.51-4.54-6.28-.03c-.76-.13-1.14-.68-.98-1.44.47-2.21,1.41-4.5,1.88-6.71.01-.05.06-.18,0-.21l-10.88-1.87-2.54,5.13c-.64.76-1.82.24-1.74-.73.88-2.08,1.96-4.08,2.92-6.14.15-.23.42-.37.68-.41,6.26.97,12.49,2.14,18.73,3.2,1.9-1.12,3.67-2.51,5.61-3.57,1.06-.18,1.53.98.76,1.64l-5.9,3.91-.38.07-5.24-.88-1.69,6.06h5.75Z"></path><circle class="st5" cx="-110.65" cy="-141.14" r="3.33"></circle></g></g><g><path class="st18" d="M26.92-94.95l.13-1.87,10.64,1.2c3.31.33,5.6-2.91,4.22-5.96-.68-1.49-1.86-1.91-3.39-2.16-6.38-1.04-13.01-1.39-19.41-2.4-.87-.05-1.7.13-2.51.46l-14.43,7.96,7.26,12.42c1.51-.88,2.99-2.12,4.84-2.07,6.15.57,12.29,1.56,18.45,2.07,1.46.12,2.19.03,3.49-.63,7.07-4.29,14.5-8.02,21.55-12.32.65-.39,1.14-.68,1.6-1.31,2.17-2.96-.69-7.01-4.16-5.83l-7.39,3.97-.81-1.68c.46-.2.92-.44,1.36-.68,1.61-.87,5.77-3.48,7.33-3.64,5.88-.59,8.55,6.93,3.72,10.3-6.55,3.72-13.04,7.55-19.59,11.25-2.55,1.44-3.97,2.64-7.11,2.44-5.97-.54-12.04-1.63-18-2.06-1.07-.08-1.43.07-2.36.55-.7.36-1.34.83-2.04,1.19.53,1.04.71,1.97.13,3.04-.49.89-1.13,1.16-1.95,1.66-1.71,1.05-3.47,2.03-5.21,3.04l-.94-1.61,6.29-3.68c.53-.48.38-.96.11-1.53-3.09-5.04-5.83-10.31-8.9-15.36-.28-.47-.58-1.17-1.26-.85l-6.33,3.6-.93-1.67c.97-.49,1.93-1.01,2.88-1.54,1.09-.61,2.21-1.36,3.31-1.92,1.67-.85,2.9-.43,3.77,1.19l14.33-7.92c1.07-.5,2.23-.74,3.41-.72l20.44,2.53c5.71,1.06,6.23,9.09.93,11.28-2.03.84-3.89.2-13.49-.76Z"></path><path class="st18" d="M48.23-123.47h1.22c.17,0,.42.28.42.46-.06.97.09,2.05,0,3-.02.24-.24.51-.49.51h-1.16v6.49c0,.06-.12.26-.16.31l-1.83,1.56c-.12.52.27,1.75-.46,1.9h-9.97c-.84-.06-.4-1.32-.53-1.87l-1.71-1.47c-.17-.16-.28-.28-.31-.52v-13.93c0-.17.06-.34.17-.47l1.84-1.57c.07-.12-.03-1.21.03-1.47.04-.18.2-.36.38-.41,3.36-.06,6.73-.03,10.09-.01.72.15.34,1.39.46,1.9l1.88,1.65s.1.2.1.22v3.73ZM45.28-130.07h-9.07v1.31s-.1.17-.12.21l-.91.78h11.12s.04.06.04.01c.02-.06-.04-.04-.07-.07-.17-.16-.99-.78-.99-.96v-1.28ZM47.32-126.86h-13.13v13.52h13.13v-13.52ZM48.97-122.56h-.74v2.18h.74v-2.18ZM46.31-112.4h-11.1c.15.22,1,.74,1,.99v1.28h9.07v-1.28c0-.07.15-.24.21-.29.25-.24.58-.44.82-.69Z"></path></g><g><path class="st2" d="M204.03-102.56l3.62-5.8-2.9-5.8h-20.29l-7.97,5.8h-35.51v23.19h35.51l8.7,11.6h10.15l2.9-5.8h6.52l2.9-5.8-2.9-5.8,2.9-5.8s-3.62-5.8-3.62-5.8Z"></path><path class="st17" d="M169.97-102.56v11.6h-14.49l14.49-11.6Z"></path><path class="st0" d="M190.26-79.37h14.49l2.9-5.79-2.9-5.8,2.9-5.8-3.62-5.8,3.62-5.8-2.9-5.8h-20.29l-7.97,5.8h-6.52"></path><path class="st0" d="M198.24-79.37l-2.9,5.8h-10.15l-8.7-11.6h-6.52"></path><path class="st0" d="M169.97-108.36h-14.49v23.19h14.49s0-23.19,0-23.19Z"></path><path class="st0" d="M155.48-108.36h-14.49"></path><path class="st0" d="M155.48-85.17h-14.49"></path><path class="st0" d="M155.48-90.96h14.49"></path><path class="st0" d="M155.48-102.56h14.49"></path><path class="st0" d="M155.48-108.36h-14.49"></path><path class="st0" d="M155.48-85.17h-14.49"></path></g><g><path class="st5" d="M156.57-119.39c-.61.55-1.48.83-2.61.83h-2.77v-1.49h2.97c.48,0,.87-.14,1.17-.43s.45-.63.45-1.04v-2.03c0-.39-.1-.71-.3-.95-.2-.24-.51-.36-.91-.36h-.59c-.96,0-1.73-.28-2.29-.85-.56-.57-.84-1.39-.84-2.47v-.74c0-1.11.3-1.94.91-2.49.61-.55,1.48-.83,2.61-.83h2.79v1.49h-2.99c-.48,0-.87.14-1.17.43-.3.29-.45.63-.45,1.04v1.48c0,.4.13.74.39,1.01.26.27.6.4,1.02.4h.59c.92,0,1.64.27,2.16.8s.77,1.34.77,2.42v1.29c0,1.11-.3,1.94-.91,2.49Z"></path><path class="st5" d="M167.73-119.39c-.61.55-1.48.83-2.61.83h-.78c-1.13,0-2-.28-2.61-.83-.61-.55-.91-1.38-.91-2.49v-7.04c0-1.11.3-1.94.91-2.49.61-.55,1.48-.83,2.61-.83h.78c1.13,0,2,.28,2.61.83.61.55.91,1.38.91,2.49v7.04c0,1.11-.3,1.94-.91,2.49ZM166.48-130.32c-.3-.29-.69-.43-1.17-.43h-1.17c-.48,0-.87.14-1.17.43-.3.29-.45.63-.45,1.04v7.78c0,.4.15.75.45,1.04s.69.43,1.17.43h1.17c.48,0,.87-.14,1.17-.43s.45-.63.45-1.04v-7.78c0-.4-.15-.75-.45-1.04Z"></path><path class="st5" d="M177.67-119.39c-.61.55-1.48.83-2.61.83h-2.77v-1.49h2.97c.48,0,.87-.14,1.17-.43s.45-.63.45-1.04v-2.03c0-.39-.1-.71-.3-.95-.2-.24-.51-.36-.91-.36h-.59c-.96,0-1.73-.28-2.29-.85-.56-.57-.84-1.39-.84-2.47v-.74c0-1.11.3-1.94.91-2.49.61-.55,1.48-.83,2.61-.83h2.79v1.49h-2.99c-.48,0-.87.14-1.17.43-.3.29-.45.63-.45,1.04v1.48c0,.4.13.74.39,1.01.26.27.6.4,1.02.4h.59c.92,0,1.64.27,2.16.8s.77,1.34.77,2.42v1.29c0,1.11-.3,1.94-.91,2.49Z"></path></g><path class="st9" d="M186.53-128.26v-6.11l-4.58-3.05"></path><path class="st9" d="M183.47-128.26v-4.58l-3.82-2.44"></path><path class="st17" d="M79.32,301.95c-12.77,12.77-33.46,12.77-46.23,0,14.6-14.6,31-31,46.23-46.23,12.77,12.77,12.77,33.46,0,46.23Z"></path><circle class="st4" cx="158.66" cy="122.4" r="32.69"></circle><g><g><path class="st3" d="M-124.18,115.26l2.23-3.57-1.79-3.57h-12.5l-4.91,3.57h-21.87v14.29h21.87l5.36,7.14h6.25l1.79-3.57h4.02l1.79-3.57-1.79-3.57,1.79-3.57s-2.23-3.57-2.23-3.57Z"></path><path class="st17" d="M-145.16,115.26v7.14h-8.93v-7.14h8.93Z"></path><path class="st1" d="M-132.66,129.55h8.93l1.79-3.57-1.79-3.57,1.79-3.57-2.23-3.57,2.23-3.57-1.79-3.57h-12.5l-4.91,3.57h-4.02"></path><path class="st1" d="M-127.75,129.55l-1.79,3.57h-6.25l-5.36-7.14h-4.02"></path><path class="st1" d="M-145.16,111.69h-8.93v14.29h8.93v-14.29Z"></path><path class="st1" d="M-154.09,111.69h-8.93"></path><path class="st1" d="M-154.09,125.98h-8.93"></path><path class="st1" d="M-154.09,122.4h8.93"></path><path class="st1" d="M-154.09,115.26h8.93"></path><path class="st1" d="M-154.09,111.69h-8.93"></path><path class="st1" d="M-154.09,125.98h-8.93"></path></g><g><g><path class="st5" d="M-149.36,103.04c-.56.51-1.35.76-2.39.76h-2.54v-1.36h2.72c.44,0,.8-.13,1.07-.39s.41-.58.41-.95v-1.86c0-.36-.09-.65-.28-.87-.19-.22-.46-.33-.83-.33h-.54c-.88,0-1.58-.26-2.1-.78-.51-.52-.77-1.27-.77-2.27v-.68c0-1.01.28-1.78.83-2.28.56-.51,1.35-.76,2.39-.76h2.56v1.36h-2.74c-.44,0-.8.13-1.07.39-.27.26-.41.58-.41.95v1.36c0,.37.12.68.36.92.24.25.55.37.93.37h.54c.85,0,1.51.24,1.98.73s.71,1.23.71,2.22v1.18c0,1.01-.28,1.78-.83,2.28Z"></path><path class="st5" d="M-139.14,103.04c-.56.51-1.35.76-2.39.76h-.72c-1.04,0-1.84-.25-2.39-.76-.56-.51-.83-1.27-.83-2.28v-6.45c0-1.01.28-1.78.83-2.28.55-.51,1.35-.76,2.39-.76h.72c1.04,0,1.84.25,2.39.76.55.51.83,1.27.83,2.28v6.45c0,1.01-.28,1.78-.83,2.28ZM-140.27,93.02c-.27-.26-.63-.39-1.07-.39h-1.07c-.44,0-.8.13-1.07.39-.27.26-.41.58-.41.95v7.13c0,.37.14.69.41.95s.63.39,1.07.39h1.07c.44,0,.8-.13,1.07-.39s.41-.58.41-.95v-7.13c0-.37-.14-.69-.41-.95Z"></path><path class="st5" d="M-130.02,103.04c-.55.51-1.35.76-2.39.76h-2.54v-1.36h2.72c.44,0,.8-.13,1.07-.39s.41-.58.41-.95v-1.86c0-.36-.09-.65-.28-.87-.19-.22-.46-.33-.83-.33h-.54c-.88,0-1.58-.26-2.1-.78-.51-.52-.77-1.27-.77-2.27v-.68c0-1.01.28-1.78.83-2.28.56-.51,1.35-.76,2.39-.76h2.56v1.36h-2.74c-.44,0-.8.13-1.07.39-.27.26-.41.58-.41.95v1.36c0,.37.12.68.36.92.24.25.55.37.93.37h.54c.85,0,1.51.24,1.98.73s.71,1.23.71,2.22v1.18c0,1.01-.28,1.78-.83,2.28Z"></path></g><path class="st9" d="M-160.95,94.9v-5.6l4.2-2.8"></path><path class="st9" d="M-158.15,94.9v-4.2l3.5-2.24"></path><path class="st9" d="M-121.91,94.9v-5.6l-4.2-2.8"></path><path class="st9" d="M-124.71,94.9v-4.2l-3.5-2.24"></path></g></g><path class="st5" d="M49.68,212.06h44.75c1.87.19,1.78,1.89-.16,2h-44.28c-1.87-.1-2.06-1.65-.31-2Z"></path><path class="st5" d="M161.11,230.39c.83-.07,1.46.68,1.33,1.49l-2.45,7.52c-.16,1.18.37,2.03,1.43,2.49,2.19.94,4.81,1.43,7.03,2.34.23.09.44.2.63.36l6.13,8.07c.7,1.23-.62,2.54-1.82,1.82-2.11-2.52-3.97-5.27-5.98-7.88l-7.39-2.53c-1.88-.96-2.94-3.12-2.47-5.2.56-2.51,1.9-5.18,2.54-7.71.18-.43.58-.73,1.04-.77Z"></path><g><path class="st5" d="M176.49,236.46c.08.01.43.19.52.25,1.85,2.21,3.59,4.52,5.34,6.82.68,1.45-1.2,2.66-2.21,1.39l-4.56-5.91-8.18-.04c-.99-.17-1.48-.89-1.27-1.87.61-2.88,1.84-5.85,2.44-8.74.01-.07.08-.23,0-.27l-14.16-2.43-3.3,6.67c-.83.99-2.37.31-2.26-.95,1.14-2.71,2.55-5.31,3.8-7.98.19-.3.54-.48.89-.53,8.14,1.26,16.25,2.78,24.38,4.16,2.48-1.45,4.77-3.27,7.3-4.65,1.38-.23,1.99,1.28.99,2.14l-7.67,5.09-.49.09-6.82-1.14-2.2,7.88h7.48Z"></path><circle class="st5" cx="169.07" cy="218.39" r="4.33"></circle></g><g><path class="st5" d="M-182.44,98.6c4.54-.05,7.13,4.69,7.34,8.7.29,5.41-2.57,12.49-4.93,17.33-.44.89-.6,1.32-1.66.75-2.4-1.3-4.7-2.78-7.11-4.08-.6-.29-.56-.79-.61-1.37-.15-1.69-.2-3.4-.31-5.1-.22-3.15-.75-6.18.08-9.28.89-3.32,3.41-6.91,7.19-6.96ZM-187.83,120.11l6.46,3.65c.61-1.26,1.18-2.55,1.72-3.85,1.89-4.59,4.19-10.73,2.37-15.63-1.6-4.32-6.24-5.74-9.25-1.81-1.51,1.97-2.12,4.82-2.04,7.27l.74,10.36Z"></path><path class="st5" d="M-189.75,123.67c.26-.25.67-.27.97-.1l7.19,4.15c.2.15.34.31.39.55-.2,1.05-.38,2.14-.65,3.17-1.48,5.68-9.62,4.41-9.22-1.32.13-1.92.89-4.08,1.11-6.02.04-.14.11-.34.21-.44Z"></path><path class="st17" d="M-188.67,125.42l-.89,4.97c.01,3.37,4.34,4.36,5.94,1.46.38-.98.54-2.04.76-3.07l-5.82-3.36Z"></path><path class="st5" d="M-199.87,85.03c4.73-.46,7.29,4.28,7.5,8.38.14,2.81-.78,5.16-1.6,7.76-.72,2.31-1.46,4.64-2.3,6.9l-.21.2-8.11,2.81c-.77.14-.95-.32-1.08-.95-.44-2.21-.77-4.67-1.1-6.91-.58-4.02-.94-8.2.39-12.12.97-2.85,3.3-5.77,6.5-6.08ZM-204.22,109.3l6.71-2.31c.48-1.36.92-2.73,1.36-4.1,1.34-4.1,3.22-8.18,1.6-12.5-1.89-5.05-7.12-4.99-9.63-.48-1.57,2.82-1.76,7.2-1.45,10.36s1.01,6.02,1.4,9.02Z"></path><path class="st5" d="M-197.16,110.66c.55-.09.88.13.95.69-.13,1.9-.01,3.83-.16,5.72-.3,3.88-5.26,5.56-7.85,2.6-1.24-1.41-1.15-2.72-1.09-4.47.02-.77-.27-1.69.57-2.03,2.4-.98,5.15-1.55,7.58-2.51Z"></path><path class="st17" d="M-197.77,112.52l-6.03,1.98c.05,1.49-.33,3.06.82,4.23,1.7,1.71,4.63.79,5.03-1.58.13-.74.1-1.81.12-2.58.02-.69-.04-1.37.05-2.06Z"></path></g><g><path class="st18" d="M-281.06-62.02c.19.21.42,1.29.52,1.63.79,2.83,1.42,5.7,2.19,8.53l1.7-3.7.34-.29h11.94c.88.09.9,1.3-.11,1.42h-11.11s-2.34,5.18-2.34,5.18c-.34.5-.88.47-1.24.01l-2.49-9.66-1.74,5.32c-.25.49-.81.62-1.23.26l-1.74-2.54c-.32.4-.59,1.34-1.15,1.42l-7.4-.02c-.71-.27-.77-1.13-.01-1.39l6.84-.02c.67-.61,1.01-2.73,2.24-1.87l1.58,2.28,2.02-6.42c.23-.44.91-.49,1.23-.14Z"></path><path class="st18" d="M-267.89-57.12c-.06-.05.63-.92.71-1.03,3.29-5.07-.58-11.45-6.6-10.26-1.51.3-2.45,1.14-3.52,2.14-.78.74-1.5,1.55-2.29,2.28-1.78-1.47-3.15-3.75-5.53-4.35-5.04-1.27-9.26,3.23-7.84,8.18.22.76.55,1.13.86,1.77.44.92-.63,1.48-1.19.79-.95-1.16-1.42-3.46-1.35-4.93.28-5.71,6.48-9.27,11.53-6.5,1.39.76,2.37,1.97,3.53,2.98,1.28-1.13,2.37-2.55,3.99-3.27,3.5-1.56,7.76-.31,9.8,2.91,1.84,2.89,1.58,6.54-.42,9.28h-1.69Z"></path><path class="st18" d="M-269.66-52.6l-.46.6-8.55,8.6c-.73.6-1.25.53-1.95-.06-2.44-2.58-5.05-5.01-7.52-7.57-.49-.51-.99-1.03-1.43-1.57h1.8l8.13,8.05.34-.22,7.89-7.83h1.74Z"></path></g><path class="st16" d="M-9.51,229.69c-.03.32.33.49.48.75.2.35.24.71.13,1.09-.34,1.14-2.16,1.63-2.2,2.89,0,.16.25.33.38.39.44.19.54.03.94.48.94,1.09.34,2.23-.84,2.75.05,1.06.69,2.04.17,3.09-.59,1.19-2.62,1.46-3.81,1.4-.61-.03-1.46-.29-2.03-.25-.67.05-1.06,1.05-1.3,1.59-.57,1.32-.88,2.73-1.36,4.08-.48.74-1.42.37-1.29-.52.1-.64.57-1.91.79-2.58.33-.99.7-2.14,1.34-2.97,1.39-1.85,2.89-.57,4.75-.78.48-.05,1.63-.24,1.72-.8.14-.84-.82-2.31-.09-3.1.24-.26.69-.45.95-.68.02-.02.06,0,.05-.07-.03-.27-.54-.35-.76-.46-1.32-.68-1.2-2.05-.5-3.16l1.78-1.67c-.17-.27-.42-.42-.57-.72-.36-.71-.07-1.8.71-2.08.09-.03.2-.03.3-.07.31-.11.72-.4.91-.67,0-.16-.79-.92-.95-1.08-.77-.73-1.65-1.35-2.42-2.05-.9-.82-.77-1.2-.89-2.32-.49-4.32-1.95-8.56-6.26-10.36-.48-.2-1.16-.22-1.1-.94s.76-.67,1.28-.51c1.76.55,3.52,2.02,4.63,3.46,1.84,2.39,2.5,5.19,2.83,8.14.05.45-.06.99.28,1.34.46.47,1.12.93,1.63,1.38.54.48,1.94,1.65,2.2,2.23.63,1.39-.7,2.39-1.87,2.75Z"></path><path class="st16" d="M32.99,210.23c.59-.06,1.05.57.72,1.09-.19.29-.84.43-1.17.58-3.73,1.65-5.48,5.64-5.95,9.49-.13,1.03.02,2.14-.76,2.94-.74.76-1.84,1.47-2.64,2.23-.17.16-.96.91-.95,1.08.2.31.59.57.93.69.07.03.17.01.25.04.77.27,1.11,1.36.76,2.07-.15.31-.46.47-.6.77l1.78,1.67c.7,1.18.77,2.46-.59,3.14-.17.08-.68.19-.7.4,0,.11.88.64,1.03.82.59.72-.12,2.06-.14,2.87-.01.54.39.67.82.8,1.45.43,2.14.04,3.51-.05,2.96-.2,3.45,4.6,4.28,6.61.17.87-.92,1.23-1.33.43-.39-1.14-.66-2.31-1.07-3.44-.21-.56-.7-1.88-1.26-2.11-.51-.21-1.71.14-2.32.17-1.2.07-3.2-.21-3.79-1.41-.49-.99.05-2.03.19-3.04-.69-.41-1.37-.93-1.29-1.83.04-.44.48-1.16.91-1.33.16-.06.33-.05.49-.12.04-.02.34-.23.35-.26.08-.11-.03-.45-.07-.58-.38-1.11-2.67-1.7-2.09-3.28.14-.39.5-.54.61-.93-.02-.08-.5-.23-.61-.29-3.06-1.61-.57-3.41.98-4.8.46-.41,1.17-.89,1.57-1.32.36-.39.25-.98.31-1.48.4-3.7,1.46-7.09,4.31-9.63.72-.64,2.63-1.9,3.57-2Z"></path><path class="st16" d="M6.2,226.57c5.3-.37,8.49,5.52,5.76,9.94-2.28,3.68-7.44,3.98-10.14.59-3.11-3.9-.71-10.18,4.38-10.53ZM6.16,227.79c-3.34.3-5.32,4.03-4.22,7.08,1.34,3.69,6.17,4.64,8.66,1.5,2.83-3.57.21-8.99-4.44-8.58Z"></path><path class="st16" d="M9.77,235.47s.1.12.09.16l-.08.09-6.04.02c-.09.02-.26-.06-.2-.16s.45-.45.57-.61c1.02-1.39-.19-3.06,1.28-4.24.24-.19.57-.25.73-.37.07-.05.09-.19.15-.26.17-.21.57-.22.77-.04.08.07.12.22.2.29.11.09.41.18.57.28,1.67,1.05.53,2.69,1.26,4.02.2.38.44.54.7.83Z"></path><path class="st16" d="M4.86,229.92c-.08.08-.25.13-.35.2-.15.11-.31.24-.43.38-.27.32-.46,1.14-1.02.77s.34-1.4.67-1.69c.16-.14.51-.41.71-.43.41-.03.72.45.41.76Z"></path><path class="st16" d="M8.76,229.17c.26-.05.43.1.63.24.38.27,1.2,1.14,1.07,1.63-.08.3-.5.39-.74.19-.13-.11-.31-.57-.49-.77-.25-.28-.82-.48-.86-.81-.02-.21.17-.44.38-.48Z"></path><g><path class="st13" d="M166.45,120.41l-1.12-8.97-6.73-2.24-6.73,2.24-1.12,8.97h3.37v11.22h8.97v-11.22h3.37Z"></path><path class="st13" d="M163.08,104.71l-4.49,2.24-4.49-2.24v-5.61l4.49-2.24,4.49,2.24v5.61Z"></path><path class="st17" d="M163.08,131.63v-11.22h3.37l-1.12-8.97-6.73-2.24v22.44h4.49Z"></path><path class="st17" d="M163.08,104.71v-5.61l-4.49-2.24v10.1l4.49-2.24Z"></path><path class="st10" d="M156.35,140.61h-12.34l-10.1-6.73,10.1-6.73h5.61"></path><path class="st10" d="M161.96,140.61h11.22l10.1-6.73-10.1-6.73h-5.61"></path><path class="st10" d="M151.86,145.09l4.49-4.45-4.49-4.53"></path><path class="st10" d="M163.08,104.71l-4.49,2.24-4.49-2.24v-5.61l4.49-2.24,4.49,2.24v5.61Z"></path><path class="st10" d="M166.45,120.41l-1.12-8.97-6.73-2.24-6.73,2.24-1.12,8.97h3.37v11.22h8.97v-11.22h3.37Z"></path></g><g><path class="st13" d="M-101.14,94.14l-2.11,4.89-5.25.59-2.82-3.72,2.11-4.89,5.41-.51,2.66,3.64Z"></path><path class="st13" d="M-104.46,103.77l-2.18,10.22,5.2,9.9-1.1-9.85,2.49-2.84,3.6,7.01,7.33,3.78,4.76,12.76-.24-13.52-3.6-7.01,6.59-2.78,7.33,3.78-6.86-8.69-8.64,2.76-4.02-6.2,4.57-4.86.13-10.24-2.97,7.75-6.99,1.55-5.41,6.49Z"></path><path class="st17" d="M-101.14,94.14l-2.11,4.89-5.96-8.02,5.41-.51,2.66,3.64Z"></path><path class="st17" d="M-89.23,98.22l.13-10.24-2.97,7.75-6.99,1.55-2.75,3.33,17.24,23.33-.05-2.7-3.6-7.01,6.59-2.78,7.33,3.78-6.86-8.69-8.64,2.76-4.02-6.2s4.57-4.86,4.57-4.86Z"></path><path class="st10" d="M-104.46,103.77l-2.18,10.22,5.2,9.9-1.1-9.85,2.49-2.84,3.6,7.01,7.33,3.78,4.76,12.76-.24-13.52-3.6-7.01,6.59-2.78,7.33,3.78-6.86-8.69-8.64,2.76-4.02-6.2,4.57-4.86.13-10.24-2.97,7.75-6.99,1.55-5.41,6.49Z"></path><path class="st10" d="M-101.14,94.14l-2.11,4.89-5.25.59-2.82-3.72,2.11-4.89,5.41-.51,2.66,3.64Z"></path></g><g><g><path class="st10" d="M-110.32,251.11v-2.03h3.04l2.03-4.05-5.07-4.05h6.08v-4.05h4.05l-4.05-12.16v-6.08l-8.11-5.07"></path><path class="st10" d="M-108.29,225.78v2.03"></path></g><g><path class="st10" d="M-66.78,224.78v2.03"></path><path class="st10" d="M-64.76,250.11v-2.03h-3.04l-2.03-4.05,5.07-4.05h-6.08v-4.05h-4.05l4.05-12.16v-6.08l8.11-5.07"></path></g><g><path class="st13" d="M-82.35,216.01l-.77.31,3.09-2.63v-4.73l-10.42-4.53-10.42,4.53v9.06l6.95,2.72v4.53l2.32-1.74,2.32-1.97v3.71l8.11,4.63v-3.47l5.79-1.74v-5.91l-6.95-2.78Z"></path><path class="st17" d="M-82.93,228.91l1.74.99v-3.47l5.79-1.74v-5.91l-1.74-.69v4.86l-5.79,1.74v4.22Z"></path><path class="st8" d="M-80.04,213.69v-4.73l-10.42-4.53-10.42,4.53v9.06l6.95,2.72v4.53l2.32-1.74"></path><path class="st8" d="M-89.3,218.79l6.95-2.78,6.95,2.78v5.91l-5.79,1.74v3.47l-8.11-4.63v-6.49Z"></path><path class="st11" d="M-85.83,220.64h6.95"></path><path class="st11" d="M-85.83,222.96h3.47"></path><path class="st11" d="M-96.25,212.53h11.58"></path><path class="st11" d="M-96.25,210.22h11.58"></path><path class="st11" d="M-96.25,214.85h5.79"></path></g></g><g><path class="st13" d="M23.1,33.12h24.77l-12.39-24.77-12.39,24.77Z"></path><path class="st17" d="M35.41,26.38l-1.67,1.67,1.67,1.67,1.67-1.67-1.67-1.67Z"></path><path class="st17" d="M36.05,24.11h-1.13l-1.13-6.76h3.38s-1.13,6.76-1.13,6.76Z"></path><path class="st17" d="M27.04,30.3l-3.94,2.81h24.77l-3.94-2.81h-16.89Z"></path><path class="st11" d="M35.41,26.38l-1.67,1.67,1.67,1.67,1.67-1.67-1.67-1.67Z"></path><path class="st11" d="M36.05,24.11h-1.13l-1.13-6.76h3.38s-1.13,6.76-1.13,6.76Z"></path><path class="st8" d="M23.1,33.12h24.77l-12.39-24.77-12.39,24.77Z"></path></g><g><path class="st16" d="M24.37,41.52c.52-.11.87.38,1.15.74,1.71,2.22,1.82,5.53.2,7.82-.15.21-.5.67-.72.78-.59.27-1.05-.18-.95-.79.03-.2.64-.85.81-1.11,1.05-1.69.94-4.08-.23-5.68-.24-.33-.76-.7-.75-1.13,0-.25.24-.59.49-.64Z"></path><path class="st16" d="M22.7,43.06c.58-.12.86.34,1.14.76.9,1.41.96,3.09.12,4.54-.27.47-.95,1.44-1.51.74-.47-.58.1-.96.37-1.42.67-1.12.53-2.22-.19-3.26-.12-.18-.31-.28-.36-.52-.06-.32.08-.76.44-.84Z"></path><g><path class="st10" d="M12.12,53.89v-2.08h3.12l2.08-4.16-5.2-4.16h6.24v-4.16h4.16l-4.16-12.48v-6.24l-8.32-5.2"></path><path class="st10" d="M14.2,27.9v2.08"></path></g></g><g><path class="st16" d="M46.42,41.56c.43,0,.75.41.67.83-.04.25-.57.75-.75,1-1.26,1.78-1.28,4.32.03,6.07.18.24.52.48.56.78.07.54-.35.89-.87.75-.34-.09-1-1.08-1.17-1.41-1.16-2.14-1.02-4.88.32-6.9.24-.36.75-1.1,1.21-1.11Z"></path><path class="st16" d="M48.01,43.09c.25-.02.48.12.6.34.34.57-.15.85-.42,1.27-.61.97-.63,2.22.02,3.18.12.17.3.32.39.49.39.79-.49,1.47-1.2.66-.89-1.02-1.17-2.61-.82-3.91.15-.57.78-1.96,1.44-2.02Z"></path><g><path class="st10" d="M56.78,27.88v2.08"></path><path class="st10" d="M58.86,53.87v-2.08h-3.12l-2.08-4.16,5.2-4.16h-6.24v-4.16h-4.16l4.16-12.48v-6.24l8.32-5.2"></path></g></g><circle class="st4" cx="35.49" cy="34.78" r="32.69"></circle><g><path class="st13" d="M224.64,132.06l-5.52,2.76-5.52-2.76v-7.36l5.52-2.76,5.52,2.76v7.36Z"></path><path class="st13" d="M228.32,141.26v-2.76l-9.2-1.84-9.2,1.84v2.76h18.41Z"></path><path class="st13" d="M248.57,109.97l-5.52,2.76-5.52-2.76v-7.36l5.52-2.76,5.52,2.76v7.36Z"></path><path class="st13" d="M252.25,119.17v-2.76l-9.2-1.84-9.2,1.84v2.76h18.41Z"></path><path class="st13" d="M230.16,111.81h-3.68v3.68l-4.6-3.68h-8.28v-11.04h16.57v11.04Z"></path><path class="st13" d="M232.01,135.74h3.68v3.68l4.6-3.68h8.28v-11.04h-16.57v11.04Z"></path><path class="st17" d="M219.12,121.93l-4.19,2.09h-.05s.03,0,.03,0l3.28,2.5h6.44v-1.84l-5.52-2.76Z"></path><path class="st17" d="M243.05,99.85l-4.19,2.09h-.05s.03,0,.03,0l3.28,2.5h6.44v-1.84l-5.52-2.76Z"></path><path class="st17" d="M232.01,135.74h3.68v3.68l4.6-3.68h8.28v-3.68h-16.57v3.68Z"></path><path class="st17" d="M230.16,111.81h-3.68v3.68l-4.6-3.68h-8.28v-3.68h16.57v3.68Z"></path><path class="st12" d="M224.64,132.06l-5.52,2.76-5.52-2.76v-7.36l5.52-2.76,5.52,2.76v7.36Z"></path><path class="st6" d="M214.89,124.01l3.31,2.52h6.44"></path><path class="st10" d="M228.32,141.26v-2.76l-9.2-1.84-9.2,1.84v2.76"></path><path class="st11" d="M235.69,128.38h7.36"></path><path class="st11" d="M235.69,132.06h5.52"></path><path class="st11" d="M217.28,104.45h7.36"></path><path class="st11" d="M217.28,108.13h5.52"></path><path class="st12" d="M248.57,109.97l-5.52,2.76-5.52-2.76v-7.36l5.52-2.76,5.52,2.76v7.36Z"></path><path class="st6" d="M238.82,101.93l3.31,2.52h6.44"></path><path class="st10" d="M252.25,119.17v-2.76l-9.2-1.84-9.2,1.84v2.76"></path><path class="st10" d="M230.16,111.81h-3.68v3.68l-4.6-3.68h-8.28v-11.04h16.57v11.04Z"></path><path class="st10" d="M232.01,135.74h3.68v3.68l4.6-3.68h8.28v-11.04h-16.57v11.04Z"></path></g></svg> 