<?xml version="1.0" encoding="UTF-8"?> <svg xmlns="http://www.w3.org/2000/svg" fill="none" viewBox="0 0 24 24" id="Paint-Palette--Streamline-Cyber"><desc> Paint Palette Streamline Icon: https://streamlinehq.com </desc><path stroke="#092f63" stroke-linecap="round" stroke-linejoin="round" stroke-miterlimit="10" d="M15.5 5.5v-2l2.191 -0.553 0.824 -1.447 0.985 3 -1.5 2h-1.5l-1 -1Z" stroke-width="1"></path><path stroke="#092f63" stroke-linejoin="round" stroke-miterlimit="10" d="m15.5 5.5 1 1 -0.155 1 -8.798 8h-2L14.5 5.655l1 -0.155Z" stroke-width="1"></path><path stroke="#092f63" stroke-linecap="round" stroke-linejoin="round" stroke-miterlimit="10" d="M9.5 8.5H6L1.5 16l1.717 2.5h3.955l-2.285 3.219L6 23.5h13l4.5 -7.5L19 8.5h-1.391" stroke-width="1"></path><path stroke="#092f63" stroke-linecap="round" stroke-linejoin="round" stroke-miterlimit="10" d="M4.60899 15.5H10.5" stroke-width="1"></path><path stroke="#092f63" stroke-linecap="round" stroke-linejoin="round" stroke-miterlimit="10" d="m17.4993 11.9993 -1.4994 1.5002 1.5002 1.4993 1.4994 -1.5001 -1.5002 -1.4994Z" stroke-width="1"></path><path stroke="#092f63" stroke-linecap="round" stroke-linejoin="round" stroke-miterlimit="10" d="M16.9993 16.9993 15.5 18.4995l1.5002 1.4993 1.4993 -1.5001 -1.5002 -1.4994Z" stroke-width="1"></path><path stroke="#092f63" stroke-linecap="round" stroke-linejoin="round" stroke-miterlimit="10" d="m12.4994 18.4993 -1.4993 1.5002 1.5002 1.4993 1.4993 -1.5001 -1.5002 -1.4994Z" stroke-width="1"></path></svg> 