<?xml version="1.0" encoding="UTF-8"?> <svg xmlns="http://www.w3.org/2000/svg" fill="none" viewBox="0 0 24 24" id="Computer-Chips-Cpu--Streamline-Cyber"><desc> Computer Chips Cpu Streamline Icon: https://streamlinehq.com </desc><path stroke="#092f63" stroke-linecap="round" stroke-linejoin="round" stroke-miterlimit="10" d="M4.5 16 8 19.5h7l3.5 -3.5V9L15 5.5H8L4.5 9v7Z" stroke-width="1"></path><path stroke="#092f63" stroke-linecap="round" stroke-linejoin="round" stroke-miterlimit="10" d="M12.5 14.5h-4" stroke-width="1"></path><path stroke="#092f63" stroke-linecap="round" stroke-linejoin="round" stroke-miterlimit="10" d="M12.5 16.5h3" stroke-width="1"></path><path stroke="#092f63" stroke-linecap="round" stroke-linejoin="round" stroke-miterlimit="10" d="M9.5 16.5h1" stroke-width="1"></path><path stroke="#092f63" stroke-linecap="round" stroke-linejoin="round" stroke-miterlimit="10" d="M15.5 14.5h-1" stroke-width="1"></path><path stroke="#092f63" stroke-linecap="round" stroke-linejoin="round" stroke-miterlimit="10" d="M20.5 3.5h-18v18h18v-18Z" stroke-width="1"></path><path stroke="#092f63" stroke-linecap="round" stroke-linejoin="round" stroke-miterlimit="10" d="M11.5 1.5v2" stroke-width="1"></path><path stroke="#092f63" stroke-linecap="round" stroke-linejoin="round" stroke-miterlimit="10" d="M14.5 1.5v2" stroke-width="1"></path><path stroke="#092f63" stroke-linecap="round" stroke-linejoin="round" stroke-miterlimit="10" d="M8.5 1.5v2" stroke-width="1"></path><path stroke="#092f63" stroke-linecap="round" stroke-linejoin="round" stroke-miterlimit="10" d="M11.5 21.5v2" stroke-width="1"></path><path stroke="#092f63" stroke-linecap="round" stroke-linejoin="round" stroke-miterlimit="10" d="M14.5 21.5v2" stroke-width="1"></path><path stroke="#092f63" stroke-linecap="round" stroke-linejoin="round" stroke-miterlimit="10" d="M8.5 21.5v2" stroke-width="1"></path><path stroke="#092f63" stroke-linecap="round" stroke-linejoin="round" stroke-miterlimit="10" d="M22.5 12.5h-2" stroke-width="1"></path><path stroke="#092f63" stroke-linecap="round" stroke-linejoin="round" stroke-miterlimit="10" d="M22.5 15.5h-2" stroke-width="1"></path><path stroke="#092f63" stroke-linecap="round" stroke-linejoin="round" stroke-miterlimit="10" d="M22.5 9.5h-2" stroke-width="1"></path><path stroke="#092f63" stroke-linecap="round" stroke-linejoin="round" stroke-miterlimit="10" d="M2.5 12.5h-2" stroke-width="1"></path><path stroke="#092f63" stroke-linecap="round" stroke-linejoin="round" stroke-miterlimit="10" d="M2.5 15.5h-2" stroke-width="1"></path><path stroke="#092f63" stroke-linecap="round" stroke-linejoin="round" stroke-miterlimit="10" d="M2.5 9.5h-2" stroke-width="1"></path></svg> 