<?xml version="1.0" encoding="UTF-8"?> <svg xmlns="http://www.w3.org/2000/svg" id="Computer-Imac-2--Streamline-Cyber" version="1.1" viewBox="0 0 70 70"><!-- Generator: Adobe Illustrator 29.2.1, SVG Export Plug-In . SVG Version: 2.1.0 Build 116) --><defs><style> .st0, .st1 { fill: #fff; } .st2 { fill: #092f63; } .st3, .st4, .st1, .st5, .st6 { stroke-linecap: round; stroke-linejoin: round; } .st3, .st4, .st5 { fill: none; } .st3, .st1, .st5, .st6 { stroke: #092f63; } .st4 { stroke: #092f63; } .st4, .st5 { stroke-width: 2px; } .st7, .st6 { fill: #bbd8ff; } </style></defs><path class="st0" d="M68.16,53.18V1.19H.88v51.99h27.52v7.65l-12.23,4.59v3.06h36.7v-3.06l-12.23-4.59v-7.65h27.52Z"></path><path class="st7" d="M68.16,1.19L.88,44h67.28V1.19Z"></path><path class="st4" d="M68.16,1.19H.88v51.99h67.28V1.19Z"></path><path class="st5" d="M.88,44h67.28"></path><path class="st5" d="M52.87,65.41v3.06H16.17v-3.06l12.23-4.59v-7.65h12.23v7.65l12.23,4.59Z"></path><g><path class="st0" d="M48.93,18.27h-2.28v-6.08l-3.8-3.04-.76-3.04h-15.2l-.76,3.04-3.8,3.04v21.28l3.8,3.04.76,3.04h15.2l.76-3.04,3.8-3.04v-10.64h2.28l.76-2.28-.76-2.28Z"></path><path class="st3" d="M46.65,12.19h-24.32v21.28h24.32V12.19Z"></path><path class="st3" d="M46.65,12.19l-3.8-3.04-.76-3.04h-15.2l-.76,3.04-3.8,3.04"></path><path class="st3" d="M46.65,33.47l-3.8,3.04-.76,3.04h-15.2l-.76-3.04-3.8-3.04"></path><path class="st3" d="M46.65,18.27h2.28l.76,2.28-.76,2.28h-2.28"></path><path class="st3" d="M26.13,9.15h16.72"></path><path class="st3" d="M26.13,36.51h16.72"></path><path class="st6" d="M40.57,21.33l1.52-1.67-1.16-1.96-2.25.54-2.55-1.37-.5-1.64h-2.28l-.5,1.64-2.55,1.37-2.25-.54-1.16,1.96,1.52,1.67v3l-1.52,1.67,1.16,1.96,2.25-.54,2.55,1.37.5,1.64h2.28l.5-1.64,2.55-1.37,2.25.54,1.16-1.96-1.52-1.67v-3Z"></path><path class="st1" d="M31.45,21.13l3.04-1.72,3.04,1.72v3.4l-3.04,1.72-3.04-1.72v-3.4Z"></path></g><g><path class="st1" d="M106.36,18.23h2.24l.75,2.24-.75,2.24h-2.24"></path><g><path class="st1" d="M108.6,18.23h-2.24v-5.97l-3.73-2.98-.75-2.98h-14.91l-.75,2.98-3.73,2.98v20.88l3.73,2.98.75,2.98h14.91l.75-2.98,3.73-2.98v-10.44h2.24l.75-2.24-.75-2.24Z"></path><path class="st1" d="M106.36,12.26h-23.86v20.88h23.86s0-20.88,0-20.88Z"></path><path class="st1" d="M106.36,12.26l-3.73-2.98-.75-2.98h-14.91l-.75,2.98-3.73,2.98"></path><path class="st1" d="M106.36,33.14l-3.73,2.98-.75,2.98h-14.91l-.75-2.98-3.73-2.98"></path><path class="st1" d="M86.23,9.28h16.4"></path><path class="st1" d="M86.23,36.12h16.4"></path></g></g><g><path class="st2" d="M-55.93,38.21H-21.53c1.44.15,1.36,1.45-.13,1.53h-34.02c-1.43-.07-1.58-1.27-.24-1.53Z"></path><path class="st2" d="M-42.83,18.85c.64-.06,1.12.52,1.02,1.15l-1.88,5.78c-.12.9.28,1.56,1.1,1.91,1.68.72,3.7,1.1,5.4,1.8.17.07.34.15.48.27l4.71,6.2c.54.94-.47,1.95-1.4,1.4-1.62-1.94-3.05-4.05-4.6-6.06l-5.68-1.94c-1.45-.74-2.26-2.4-1.9-4,.43-1.93,1.46-3.98,1.95-5.92.14-.33.44-.56.8-.59Z"></path><g><path class="st2" d="M-31.01,23.51c.06.01.33.15.4.19,1.42,1.7,2.76,3.48,4.1,5.24.52,1.12-.92,2.05-1.7,1.07l-3.51-4.54-6.28-.03c-.76-.13-1.14-.68-.98-1.44.47-2.21,1.41-4.5,1.88-6.71.01-.05.06-.18,0-.21l-10.88-1.87-2.54,5.13c-.64.76-1.82.24-1.74-.73.88-2.08,1.96-4.08,2.92-6.14.15-.23.42-.37.68-.41,6.26.97,12.49,2.14,18.73,3.2,1.9-1.12,3.67-2.51,5.61-3.57,1.06-.18,1.53.98.76,1.64l-5.9,3.91-.38.07-5.24-.88-1.69,6.06h5.75Z"></path><circle class="st2" cx="-36.71" cy="9.63" r="3.33"></circle></g></g></svg> 